# xmcd
#
# Track frame offsets: 
#        150
#        16822
#        46385
#        68438
#        80873
#        103527
#        104355
#        135333
#        151939
#        173805
#        200996
#        221211
#        240226
#        256580
#
# Disc length: 3785 seconds
#
# Revision: 0
# Processed by: cddbd v1.5.2PL0 Copyright (c) Steve Scherf et al.
# Submitted via: ExactAudioCopy v0.99pb4
#
DISCID=b40ec70e
DTITLE=Him and Me - Kitchen Mix
DYEAR=2011
DGENRE=Blues
TTITLE0=So bad
TTITLE1=Darkroom
TTITLE2=My Ninja Mermaid
TTITLE3=Listen
TTITLE4=Chains
TTITLE5=I was just a little boy
TTITLE6=Beautiful Daydream
TTITLE7=Walking Blues
TTITLE8=Together
TTITLE9=Me
TTITLE10=Funky Blues
TTITLE11=Rain
TTITLE12=1945
TTITLE13=HiddenTrack
EXTD=
EXTT0=
EXTT1=
EXTT2=
EXTT3=
EXTT4=
EXTT5=
EXTT6=
EXTT7=
EXTT8=
EXTT9=
EXTT10=
EXTT11=
EXTT12=
EXTT13=
PLAYORDER=
